<svg xmlns="http://www.w3.org/2000/svg" width="63" height="63" viewBox="0 0 63 63">
  <g id="Group_3" data-name="Group 3" transform="translate(-233 -836)">
    <path id="Path_6" data-name="Path 6" d="M31.5,0A31.5,31.5,0,1,1,0,31.5,31.5,31.5,0,0,1,31.5,0Z" transform="translate(233 836)" fill="#f16a85"/>
    <path id="twitter-brands" d="M32.4,56.268c.023.321.023.641.023.962,0,9.776-7.443,21.047-21.047,21.047A20.881,20.881,0,0,1,.025,74.956a15.3,15.3,0,0,0,1.786.092A14.823,14.823,0,0,0,11,71.888,7.41,7.41,0,0,1,4.08,66.759a9.325,9.325,0,0,0,1.4.114,7.82,7.82,0,0,0,1.946-.252,7.381,7.381,0,0,1-5.931-7.2v-.092a7.449,7.449,0,0,0,3.343.939,7.408,7.408,0,0,1-2.29-9.892A21.013,21.013,0,0,0,17.8,58.12a8.351,8.351,0,0,1-.183-1.694,7.4,7.4,0,0,1,12.8-5.058,14.557,14.557,0,0,0,4.694-1.786,7.379,7.379,0,0,1-3.252,4.076,14.839,14.839,0,0,0,4.259-1.145,15.887,15.887,0,0,1-3.71,3.824Z" transform="translate(246.429 804.846)" fill="#fff"/>
  </g>
</svg>
