<svg xmlns="http://www.w3.org/2000/svg" width="63" height="63" viewBox="0 0 63 63">
  <g id="Group_2" data-name="Group 2" transform="translate(-329 -835)">
    <path id="Path_7" data-name="Path 7" d="M31.5,0A31.5,31.5,0,1,1,0,31.5,31.5,31.5,0,0,1,31.5,0Z" transform="translate(329 835)" fill="#f16a85"/>
    <path id="instagram-brands" d="M19.717,41.464A10.144,10.144,0,1,0,29.861,51.608,10.128,10.128,0,0,0,19.717,41.464Zm0,16.739a6.595,6.595,0,1,1,6.595-6.595A6.607,6.607,0,0,1,19.717,58.2ZM32.642,41.049a2.366,2.366,0,1,1-2.366-2.366A2.361,2.361,0,0,1,32.642,41.049Zm6.719,2.4c-.15-3.169-.874-5.977-3.2-8.29s-5.121-3.037-8.29-3.2c-3.267-.185-13.058-.185-16.324,0-3.161.15-5.968.874-8.29,3.187s-3.037,5.121-3.2,8.29c-.185,3.267-.185,13.058,0,16.324.15,3.169.874,5.977,3.2,8.29s5.121,3.037,8.29,3.2c3.267.185,13.058.185,16.324,0,3.169-.15,5.977-.874,8.29-3.2s3.037-5.121,3.2-8.29c.185-3.267.185-13.049,0-16.315ZM35.14,63.27a6.677,6.677,0,0,1-3.761,3.761c-2.6,1.033-8.784.795-11.663.795s-9.067.23-11.663-.795A6.677,6.677,0,0,1,4.293,63.27C3.26,60.666,3.5,54.486,3.5,51.608s-.23-9.067.795-11.663a6.677,6.677,0,0,1,3.761-3.761c2.6-1.033,8.784-.795,11.663-.795s9.067-.23,11.663.795a6.677,6.677,0,0,1,3.761,3.761c1.033,2.6.795,8.784.795,11.663S36.173,60.675,35.14,63.27Z" transform="translate(340.788 814.892)" fill="#fff"/>
  </g>
</svg>
